<mxfile host="65bd71144e">
    <diagram id="VnVDAfRVWkSpbh2zJRrT" name="Page-1">
        <mxGraphModel dx="1175" dy="2425" grid="1" gridSize="10" guides="1" tooltips="1" connect="1" arrows="1" fold="1" page="1" pageScale="1" pageWidth="1169" pageHeight="1654" math="0" shadow="0">
            <root>
                <mxCell id="0"/>
                <mxCell id="1" parent="0"/>
                <mxCell id="2" value="Benutzer&lt;br&gt;" style="whiteSpace=wrap;html=1;fillColor=#a20025;fontColor=#ffffff;strokeColor=#6F0000;" parent="1" vertex="1">
                    <mxGeometry x="467.5" y="590" width="120" height="60" as="geometry"/>
                </mxCell>
                <mxCell id="6" value="" style="edgeStyle=none;html=1;endArrow=none;endFill=0;curved=1;" parent="1" source="3" target="2" edge="1">
                    <mxGeometry relative="1" as="geometry"/>
                </mxCell>
                <mxCell id="3" value="&lt;u&gt;E-Mail Adresse&lt;/u&gt;," style="ellipse;whiteSpace=wrap;html=1;strokeColor=#3700CC;gradientColor=none;fillColor=#009900;" parent="1" vertex="1">
                    <mxGeometry x="520" y="710" width="120" height="60" as="geometry"/>
                </mxCell>
                <mxCell id="7" value="" style="edgeStyle=none;html=1;endArrow=none;endFill=0;curved=1;" parent="1" source="4" target="2" edge="1">
                    <mxGeometry relative="1" as="geometry"/>
                </mxCell>
                <mxCell id="4" value="Name, Vorname, Passwort" style="ellipse;whiteSpace=wrap;html=1;strokeColor=#3700CC;gradientColor=none;fillColor=#009900;" parent="1" vertex="1">
                    <mxGeometry x="720" y="690" width="120" height="60" as="geometry"/>
                </mxCell>
                <mxCell id="12" value="" style="edgeStyle=none;html=1;endArrow=none;endFill=0;curved=1;" parent="1" source="8" target="9" edge="1">
                    <mxGeometry relative="1" as="geometry"/>
                </mxCell>
                <mxCell id="13" value="" style="edgeStyle=none;html=1;endArrow=none;endFill=0;curved=1;" parent="1" source="8" target="10" edge="1">
                    <mxGeometry relative="1" as="geometry"/>
                </mxCell>
                <mxCell id="14" value="" style="edgeStyle=none;html=1;endArrow=none;endFill=0;curved=1;" parent="1" source="8" target="2" edge="1">
                    <mxGeometry relative="1" as="geometry"/>
                </mxCell>
                <mxCell id="8" value="N,T" style="triangle;whiteSpace=wrap;html=1;rotation=90;strokeColor=#A50040;fillColor=#d80073;fontColor=#ffffff;" parent="1" vertex="1">
                    <mxGeometry x="495" y="480" width="65" height="65" as="geometry"/>
                </mxCell>
                <mxCell id="9" value="Mitarbeiter" style="whiteSpace=wrap;html=1;fillColor=#a20025;fontColor=#ffffff;strokeColor=#6F0000;" parent="1" vertex="1">
                    <mxGeometry x="550" y="370" width="120" height="60" as="geometry"/>
                </mxCell>
                <mxCell id="10" value="Kunden" style="whiteSpace=wrap;html=1;fillColor=#a20025;fontColor=#ffffff;strokeColor=#6F0000;" parent="1" vertex="1">
                    <mxGeometry x="380" y="370" width="120" height="60" as="geometry"/>
                </mxCell>
                <mxCell id="17" value="" style="edgeStyle=none;curved=1;html=1;endArrow=none;endFill=0;" parent="1" source="16" target="10" edge="1">
                    <mxGeometry relative="1" as="geometry"/>
                </mxCell>
                <mxCell id="16" value="Geburtsdatum" style="ellipse;whiteSpace=wrap;html=1;fillColor=#009900;gradientColor=none;" parent="1" vertex="1">
                    <mxGeometry x="310" y="470" width="120" height="60" as="geometry"/>
                </mxCell>
                <mxCell id="19" value="" style="edgeStyle=none;curved=1;html=1;endArrow=none;endFill=0;" parent="1" source="18" target="9" edge="1">
                    <mxGeometry relative="1" as="geometry"/>
                </mxCell>
                <mxCell id="18" value="&lt;u&gt;Personalnummer&lt;br&gt;&lt;/u&gt;" style="ellipse;whiteSpace=wrap;html=1;fillColor=#009900;gradientColor=none;" parent="1" vertex="1">
                    <mxGeometry x="685" y="290" width="120" height="60" as="geometry"/>
                </mxCell>
                <mxCell id="21" value="" style="edgeStyle=none;curved=1;html=1;endArrow=none;endFill=0;" parent="1" source="20" target="9" edge="1">
                    <mxGeometry relative="1" as="geometry"/>
                </mxCell>
                <mxCell id="20" value="Telefonnummer" style="ellipse;whiteSpace=wrap;html=1;fillColor=#009900;gradientColor=none;" parent="1" vertex="1">
                    <mxGeometry x="740" y="340" width="120" height="60" as="geometry"/>
                </mxCell>
                <mxCell id="24" value="" style="edgeStyle=none;curved=1;html=1;endArrow=none;endFill=0;" parent="1" source="22" target="23" edge="1">
                    <mxGeometry relative="1" as="geometry"/>
                </mxCell>
                <mxCell id="22" value="Abteilung" style="whiteSpace=wrap;html=1;fillColor=#a20025;fontColor=#ffffff;strokeColor=#6F0000;rounded=0;" parent="1" vertex="1">
                    <mxGeometry x="805" y="485" width="120" height="60" as="geometry"/>
                </mxCell>
                <mxCell id="25" value="" style="edgeStyle=none;curved=1;html=1;endArrow=none;endFill=0;" parent="1" source="23" target="9" edge="1">
                    <mxGeometry relative="1" as="geometry"/>
                </mxCell>
                <mxCell id="23" value="gehÃ¶rt-zu" style="rhombus;whiteSpace=wrap;html=1;strokeColor=#C73500;fillColor=#fa6800;fontColor=#000000;" parent="1" vertex="1">
                    <mxGeometry x="680" y="410" width="80" height="80" as="geometry"/>
                </mxCell>
                <mxCell id="27" value="" style="edgeStyle=none;curved=1;html=1;endArrow=none;endFill=0;" parent="1" source="26" target="22" edge="1">
                    <mxGeometry relative="1" as="geometry"/>
                </mxCell>
                <mxCell id="28" value="(0,1)" style="edgeStyle=none;html=1;endArrow=none;endFill=0;rounded=0;jumpStyle=line;" parent="1" source="26" target="22" edge="1">
                    <mxGeometry relative="1" as="geometry"/>
                </mxCell>
                <mxCell id="33" value="(0,n)" style="edgeStyle=none;rounded=0;jumpStyle=line;html=1;endArrow=none;endFill=0;" parent="1" source="26" target="32" edge="1">
                    <mxGeometry relative="1" as="geometry"/>
                </mxCell>
                <mxCell id="26" value="Hierarchie" style="rhombus;whiteSpace=wrap;html=1;strokeColor=#C73500;fillColor=#fa6800;rounded=0;fontColor=#000000;" parent="1" vertex="1">
                    <mxGeometry x="1000" y="460" width="80" height="80" as="geometry"/>
                </mxCell>
                <mxCell id="34" value="" style="edgeStyle=none;rounded=0;jumpStyle=line;html=1;endArrow=none;endFill=0;" parent="1" source="32" target="22" edge="1">
                    <mxGeometry relative="1" as="geometry"/>
                </mxCell>
                <mxCell id="32" value="" style="shape=waypoint;sketch=0;size=6;pointerEvents=1;points=[];fillColor=none;resizable=0;rotatable=0;perimeter=centerPerimeter;snapToPoint=1;rounded=0;strokeColor=default;" parent="1" vertex="1">
                    <mxGeometry x="860" y="410" width="40" height="40" as="geometry"/>
                </mxCell>
                <mxCell id="35" value="Produkte" style="whiteSpace=wrap;html=1;rounded=0;strokeColor=#6F0000;fillColor=#a20025;fontColor=#ffffff;" parent="1" vertex="1">
                    <mxGeometry x="180" y="190" width="120" height="60" as="geometry"/>
                </mxCell>
                <mxCell id="37" value="(0,m)" style="edgeStyle=none;rounded=0;jumpStyle=line;html=1;endArrow=none;endFill=0;" parent="1" source="36" target="35" edge="1">
                    <mxGeometry relative="1" as="geometry"/>
                </mxCell>
                <mxCell id="38" value="(0,n)" style="edgeStyle=none;rounded=0;jumpStyle=line;html=1;endArrow=none;endFill=0;" parent="1" source="36" target="10" edge="1">
                    <mxGeometry relative="1" as="geometry"/>
                </mxCell>
                <mxCell id="36" value="Warenkorb" style="rhombus;whiteSpace=wrap;html=1;rounded=0;strokeColor=#C73500;fillColor=#fa6800;fontColor=#000000;" parent="1" vertex="1">
                    <mxGeometry x="200" y="360" width="80" height="80" as="geometry"/>
                </mxCell>
                <mxCell id="40" value="" style="edgeStyle=none;rounded=0;jumpStyle=line;html=1;endArrow=none;endFill=0;" parent="1" source="39" target="36" edge="1">
                    <mxGeometry relative="1" as="geometry"/>
                </mxCell>
                <mxCell id="39" value="Menge" style="ellipse;whiteSpace=wrap;html=1;rounded=0;strokeColor=#005700;fillColor=#008a00;fontColor=#ffffff;" parent="1" vertex="1">
                    <mxGeometry x="250" y="310" width="80" height="40" as="geometry"/>
                </mxCell>
                <mxCell id="45" value="" style="edgeStyle=none;rounded=0;jumpStyle=line;html=1;endArrow=none;endFill=0;" parent="1" source="41" target="35" edge="1">
                    <mxGeometry relative="1" as="geometry"/>
                </mxCell>
                <mxCell id="41" value="&lt;u&gt;Produktnummer&lt;/u&gt;" style="ellipse;whiteSpace=wrap;html=1;rounded=0;strokeColor=#005700;fillColor=#008a00;fontColor=#ffffff;" parent="1" vertex="1">
                    <mxGeometry x="10" y="180" width="120" height="60" as="geometry"/>
                </mxCell>
                <mxCell id="44" value="" style="edgeStyle=none;rounded=0;jumpStyle=line;html=1;endArrow=none;endFill=0;" parent="1" source="43" target="35" edge="1">
                    <mxGeometry relative="1" as="geometry"/>
                </mxCell>
                <mxCell id="43" value="Bezeichnung,&lt;br&gt;VerfÃ¼gbarkeit,&lt;br&gt;Preis,&lt;br&gt;Anlagedatum" style="ellipse;whiteSpace=wrap;html=1;rounded=0;strokeColor=#005700;fillColor=#008a00;fontColor=#ffffff;" parent="1" vertex="1">
                    <mxGeometry y="280" width="120" height="60" as="geometry"/>
                </mxCell>
                <mxCell id="46" value="Kategorie" style="whiteSpace=wrap;html=1;rounded=0;strokeColor=#6F0000;fillColor=#a20025;fontColor=#ffffff;" parent="1" vertex="1">
                    <mxGeometry x="180" y="20" width="120" height="60" as="geometry"/>
                </mxCell>
                <mxCell id="48" value="(0,n)" style="edgeStyle=none;rounded=0;jumpStyle=line;html=1;endArrow=none;endFill=0;" parent="1" source="47" target="46" edge="1">
                    <mxGeometry relative="1" as="geometry"/>
                </mxCell>
                <mxCell id="49" value="(0,1)" style="edgeStyle=none;rounded=0;jumpStyle=line;html=1;endArrow=none;endFill=0;" parent="1" source="47" target="35" edge="1">
                    <mxGeometry relative="1" as="geometry"/>
                </mxCell>
                <mxCell id="47" value="hat&lt;br&gt;" style="rhombus;whiteSpace=wrap;html=1;rounded=0;strokeColor=#C73500;fillColor=#fa6800;fontColor=#000000;" parent="1" vertex="1">
                    <mxGeometry x="210" y="110" width="60" height="50" as="geometry"/>
                </mxCell>
                <mxCell id="52" value="(0,1)" style="edgeStyle=none;rounded=0;jumpStyle=line;html=1;endArrow=none;endFill=0;" parent="1" source="51" target="46" edge="1">
                    <mxGeometry relative="1" as="geometry"/>
                </mxCell>
                <mxCell id="55" value="" style="edgeStyle=none;rounded=0;jumpStyle=line;html=1;endArrow=none;endFill=0;" parent="1" source="51" target="53" edge="1">
                    <mxGeometry relative="1" as="geometry"/>
                </mxCell>
                <mxCell id="51" value="zusammen-gekauft" style="rhombus;whiteSpace=wrap;html=1;rounded=0;strokeColor=#C73500;fillColor=#fa6800;fontColor=#000000;" parent="1" vertex="1">
                    <mxGeometry x="360" y="20" width="60" height="60" as="geometry"/>
                </mxCell>
                <mxCell id="53" value="" style="shape=waypoint;sketch=0;size=6;pointerEvents=1;points=[];fillColor=none;resizable=0;rotatable=0;perimeter=centerPerimeter;snapToPoint=1;rounded=0;strokeColor=default;" parent="1" vertex="1">
                    <mxGeometry x="370" y="-70" width="40" height="40" as="geometry"/>
                </mxCell>
                <mxCell id="56" value="" style="edgeStyle=none;rounded=0;jumpStyle=line;html=1;endArrow=none;endFill=0;" parent="1" source="54" target="46" edge="1">
                    <mxGeometry relative="1" as="geometry"/>
                </mxCell>
                <mxCell id="57" value="(0,n)" style="edgeStyle=none;rounded=0;jumpStyle=line;html=1;endArrow=none;endFill=0;" parent="1" source="54" target="53" edge="1">
                    <mxGeometry relative="1" as="geometry"/>
                </mxCell>
                <mxCell id="54" value="" style="shape=waypoint;sketch=0;size=6;pointerEvents=1;points=[];fillColor=none;resizable=0;rotatable=0;perimeter=centerPerimeter;snapToPoint=1;rounded=0;strokeColor=default;" parent="1" vertex="1">
                    <mxGeometry x="220" y="-70" width="40" height="40" as="geometry"/>
                </mxCell>
                <mxCell id="58" value="&lt;b style=&quot;font-size: 21px;&quot;&gt;&lt;i style=&quot;font-size: 21px;&quot;&gt;Struktur&lt;/i&gt;&lt;/b&gt;" style="text;html=1;align=center;verticalAlign=middle;resizable=0;points=[];autosize=1;strokeColor=none;fillColor=none;rounded=0;fontSize=21;" parent="1" vertex="1">
                    <mxGeometry x="410" y="-90" width="100" height="30" as="geometry"/>
                </mxCell>
                <mxCell id="59" value="&lt;b&gt;&lt;i&gt;Hierarchie&lt;/i&gt;&lt;/b&gt;" style="text;html=1;align=center;verticalAlign=middle;resizable=0;points=[];autosize=1;strokeColor=none;fillColor=none;fontSize=21;" parent="1" vertex="1">
                    <mxGeometry x="990" y="375" width="120" height="30" as="geometry"/>
                </mxCell>
                <mxCell id="61" value="" style="edgeStyle=none;rounded=0;jumpStyle=line;html=1;fontSize=12;endArrow=none;endFill=0;" parent="1" source="60" target="46" edge="1">
                    <mxGeometry relative="1" as="geometry"/>
                </mxCell>
                <mxCell id="60" value="&lt;font style=&quot;font-size: 12px&quot;&gt;&lt;u&gt;KategorieID&lt;/u&gt;&lt;/font&gt;" style="ellipse;whiteSpace=wrap;html=1;rounded=0;fontSize=21;strokeColor=#005700;fillColor=#008a00;fontColor=#ffffff;" parent="1" vertex="1">
                    <mxGeometry x="30" width="120" height="60" as="geometry"/>
                </mxCell>
                <mxCell id="62" value="Besetellung" style="whiteSpace=wrap;html=1;rounded=0;fontSize=12;strokeColor=#6F0000;fillColor=#a20025;fontColor=#ffffff;" parent="1" vertex="1">
                    <mxGeometry x="490" y="130" width="120" height="60" as="geometry"/>
                </mxCell>
                <mxCell id="67" value="(0,n)" style="edgeStyle=none;rounded=0;jumpStyle=line;html=1;fontSize=12;endArrow=none;endFill=0;" parent="1" source="66" target="10" edge="1">
                    <mxGeometry relative="1" as="geometry"/>
                </mxCell>
                <mxCell id="68" value="(1,1)" style="edgeStyle=none;rounded=0;jumpStyle=line;html=1;fontSize=12;endArrow=none;endFill=0;" parent="1" source="66" target="62" edge="1">
                    <mxGeometry relative="1" as="geometry"/>
                </mxCell>
                <mxCell id="66" value="bestellt" style="rhombus;whiteSpace=wrap;html=1;rounded=0;fontSize=12;strokeColor=#C73500;fillColor=#fa6800;fontColor=#000000;" parent="1" vertex="1">
                    <mxGeometry x="450" y="230" width="80" height="80" as="geometry"/>
                </mxCell>
                <mxCell id="70" value="(0,m)" style="edgeStyle=none;rounded=0;jumpStyle=line;html=1;fontSize=12;endArrow=none;endFill=0;" parent="1" source="69" target="35" edge="1">
                    <mxGeometry relative="1" as="geometry"/>
                </mxCell>
                <mxCell id="71" value="1,n)" style="edgeStyle=none;rounded=0;jumpStyle=line;html=1;fontSize=12;endArrow=none;endFill=0;" parent="1" source="69" target="62" edge="1">
                    <mxGeometry relative="1" as="geometry"/>
                </mxCell>
                <mxCell id="69" value="hat" style="rhombus;whiteSpace=wrap;html=1;rounded=0;fontSize=12;strokeColor=#C73500;fillColor=#fa6800;fontColor=#000000;" parent="1" vertex="1">
                    <mxGeometry x="360" y="150" width="80" height="80" as="geometry"/>
                </mxCell>
                <mxCell id="73" value="" style="edgeStyle=none;rounded=0;jumpStyle=line;html=1;fontSize=12;endArrow=none;endFill=0;" parent="1" source="72" target="62" edge="1">
                    <mxGeometry relative="1" as="geometry"/>
                </mxCell>
                <mxCell id="72" value="&lt;u&gt;BestellNR&lt;/u&gt;" style="ellipse;whiteSpace=wrap;html=1;rounded=0;fontSize=12;strokeColor=#005700;fillColor=#008a00;fontColor=#ffffff;" parent="1" vertex="1">
                    <mxGeometry x="630" y="30" width="120" height="60" as="geometry"/>
                </mxCell>
                <mxCell id="75" value="" style="edgeStyle=none;rounded=0;jumpStyle=line;html=1;fontSize=12;endArrow=none;endFill=0;" parent="1" source="74" target="62" edge="1">
                    <mxGeometry relative="1" as="geometry"/>
                </mxCell>
                <mxCell id="74" value="Bestelldatum" style="ellipse;whiteSpace=wrap;html=1;rounded=0;fontSize=12;strokeColor=#005700;fillColor=#008a00;fontColor=#ffffff;" parent="1" vertex="1">
                    <mxGeometry x="510" y="40" width="120" height="60" as="geometry"/>
                </mxCell>
                <mxCell id="77" value="" style="edgeStyle=none;rounded=0;jumpStyle=line;html=1;fontSize=12;endArrow=none;endFill=0;" parent="1" source="76" target="69" edge="1">
                    <mxGeometry relative="1" as="geometry"/>
                </mxCell>
                <mxCell id="76" value="Menge" style="ellipse;whiteSpace=wrap;html=1;rounded=0;fontSize=12;strokeColor=#005700;fillColor=#008a00;fontColor=#ffffff;" parent="1" vertex="1">
                    <mxGeometry x="387.5" y="90" width="80" height="40" as="geometry"/>
                </mxCell>
                <mxCell id="79" value="(1,1)" style="edgeStyle=none;rounded=0;jumpStyle=line;html=1;fontSize=12;endArrow=none;endFill=0;" parent="1" source="78" target="62" edge="1">
                    <mxGeometry relative="1" as="geometry"/>
                </mxCell>
                <mxCell id="80" value="(0,1)" style="edgeStyle=none;rounded=0;jumpStyle=line;html=1;fontSize=12;endArrow=none;endFill=0;" parent="1" source="78" target="9" edge="1">
                    <mxGeometry relative="1" as="geometry"/>
                </mxCell>
                <mxCell id="78" value="bearbeitet" style="rhombus;whiteSpace=wrap;html=1;rounded=0;fontSize=12;strokeColor=#C73500;fillColor=#fa6800;fontColor=#000000;" parent="1" vertex="1">
                    <mxGeometry x="590" y="230" width="80" height="80" as="geometry"/>
                </mxCell>
                <mxCell id="81" value="Status" style="whiteSpace=wrap;html=1;rounded=0;fontSize=12;strokeColor=#6F0000;fillColor=#a20025;fontColor=#ffffff;" parent="1" vertex="1">
                    <mxGeometry x="890" y="130" width="120" height="60" as="geometry"/>
                </mxCell>
                <mxCell id="83" value="(1,1)" style="edgeStyle=none;rounded=0;jumpStyle=line;html=1;fontSize=12;endArrow=none;endFill=0;" parent="1" source="82" target="62" edge="1">
                    <mxGeometry relative="1" as="geometry"/>
                </mxCell>
                <mxCell id="84" value="(0,n)" style="edgeStyle=none;rounded=0;jumpStyle=line;html=1;fontSize=12;endArrow=none;endFill=0;" parent="1" source="82" target="81" edge="1">
                    <mxGeometry relative="1" as="geometry"/>
                </mxCell>
                <mxCell id="82" value="hat" style="rhombus;whiteSpace=wrap;html=1;rounded=0;fontSize=12;strokeColor=#C73500;fillColor=#fa6800;fontColor=#000000;" parent="1" vertex="1">
                    <mxGeometry x="725" y="110" width="80" height="80" as="geometry"/>
                </mxCell>
                <mxCell id="86" value="" style="edgeStyle=none;rounded=0;jumpStyle=line;html=1;fontSize=12;endArrow=none;endFill=0;" parent="1" source="85" target="81" edge="1">
                    <mxGeometry relative="1" as="geometry"/>
                </mxCell>
                <mxCell id="85" value="&lt;u&gt;StatusID&lt;/u&gt;" style="ellipse;whiteSpace=wrap;html=1;rounded=0;fontSize=12;strokeColor=#005700;fillColor=#008a00;fontColor=#ffffff;" parent="1" vertex="1">
                    <mxGeometry x="900" y="30" width="120" height="60" as="geometry"/>
                </mxCell>
                <mxCell id="88" value="" style="edgeStyle=none;rounded=0;jumpStyle=line;html=1;fontSize=12;endArrow=none;endFill=0;" parent="1" source="87" target="81" edge="1">
                    <mxGeometry relative="1" as="geometry"/>
                </mxCell>
                <mxCell id="87" value="Bezeichnung" style="ellipse;whiteSpace=wrap;html=1;rounded=0;fontSize=12;strokeColor=#005700;fillColor=#008a00;fontColor=#ffffff;" parent="1" vertex="1">
                    <mxGeometry x="1049" y="120" width="120" height="60" as="geometry"/>
                </mxCell>
            </root>
        </mxGraphModel>
    </diagram>
</mxfile>